<svg xmlns="http://www.w3.org/2000/svg" viewBox="0 0 24 24" fill="#96bf48">
  <path d="M15.337 3.418c-.073-.124-.26-.186-.416-.155-1.02.207-1.474.283-1.525.283-.052-.145-.124-.28-.217-.4a1.827 1.827 0 0 0-.725-.662c-.295-.155-.64-.219-1.03-.195-.39.025-.825.127-1.305.307a5.93 5.93 0 0 0-1.447.81c-.467.352-.88.77-1.243 1.253-.364.483-.64 1.015-.83 1.596-.189.58-.264 1.188-.226 1.821a3.3 3.3 0 0 0 .186.894l-1.74.538-.84.26v.001l-.001.518V21l8.628 1.998L21 21.21V6.947c-.073-.073-.166-.145-.268-.217a16.85 16.85 0 0 0-1.98-1.206c-.723-.39-1.376-.667-1.96-.833-.583-.166-1.07-.238-1.455-.273zm-2.76 1.165c.12-.135.272-.217.456-.248.184-.031.39-.015.62.047.228.062.465.158.711.29.245.132.487.29.723.475a5.09 5.09 0 0 1 .64.564c-.249.072-.585.176-.99.311l-1.525.52c-.02-.579.08-1.105.365-1.959zm.933 3.47l3.41-1.179c.184-.062.31-.103.372-.124.27.393.506.847.707 1.361a6.8 6.8 0 0 1 .404 1.505c.062.487.051.911-.031 1.271l-4.862 1.68V8.053zm-3.89 7.012l-.002-5.91 4.77-1.642.002 6.062-4.77 1.49z"/>
</svg>
